# xmcd
#
# Track frame offsets:
#	150
#	18975
#	23160
#	47536
#
# Disc length: 857 seconds
#
# Revision: 1
# Processed by: cddbd v1.5PL3 Copyright (c) Steve Scherf et al.
# Submitted via: CDex 1.50Beta5
#
DISCID=23035704
DTITLE=山本麻里安・門脇舞 - 美少女探偵ミラクル☆スウィーツ
DYEAR=1900
DGENRE=その他
TTITLE0=おかしな大作戦
TTITLE1=はじめまして
TTITLE2=おかしな替え玉大作戦
TTITLE3=ミラクル・カルロスゴーン
EXTD=
EXTT0=
EXTT1=
EXTT2=
EXTT3=
PLAYORDER=
